<svg xmlns="http://www.w3.org/2000/svg" viewBox="0 0 64 64">
  <defs>
    <linearGradient id="g" x1="0" y1="0" x2="1" y2="1">
      <stop offset="0" stop-color="#4f46e5"/>
      <stop offset="1" stop-color="#06b6d4"/>
    </linearGradient>
  </defs>
  <rect width="64" height="64" rx="15" fill="url(#g)"/>
  <path fill="#fff" d="M48 30.5 36 28l-7-12c-.5-.9-1.4-1.4-2.4-1.2-1 .2-1.6 1.1-1.5 2.1L26 27l-9 2-2-4c-.3-.6-.9-.9-1.6-.8l-2 .4 1.8 7-1.8 7 2 .4c.7.1 1.3-.2 1.6-.8l2-4 9 2-1.4 10.1c-.1 1 .5 1.9 1.5 2.1 1 .2 1.9-.3 2.4-1.2l7-12 12-2.5c1-.2 1.7-1 1.7-2s-.7-1.8-1.7-2z"/>
</svg>
